<svg xmlns="http://www.w3.org/2000/svg" viewBox="0 0 512 512" fill="none">
  <defs>
    <linearGradient id="tealGrad" x1="0%" y1="0%" x2="100%" y2="100%">
      <stop offset="0%" stop-color="#0d9488"/>
      <stop offset="50%" stop-color="#0f766e"/>
      <stop offset="100%" stop-color="#115e59"/>
    </linearGradient>
    <filter id="shadow" x="-20%" y="-20%" width="140%" height="140%">
      <feDropShadow dx="0" dy="8" stdDeviation="16" flood-color="#000000" flood-opacity="0.25"/>
    </filter>
  </defs>
  <rect width="512" height="512" rx="128" fill="url(#tealGrad)"/>
  <rect x="16" y="16" width="480" height="480" rx="112" stroke="#2dd4bf" stroke-width="6" stroke-opacity="0.4"/>
  <g filter="url(#shadow)" transform="translate(64, 64) scale(0.75)">
    <path d="M256 440s-160-100-160-220c0-66 54-120 120-120 38 0 72 18 94 48 22-30 56-48 94-48 66 0 120 54 120 120 0 120-160 220-160 220z" 
          fill="#ffffff" stroke="#99f6e4" stroke-width="12" stroke-linejoin="round"/>
    <path d="M256 160v120M196 220h120" stroke="#0f766e" stroke-width="32" stroke-linecap="round"/>
  </g>
</svg>
